<?xml version="1.0" encoding="utf-8"?>
<!-- Generator: Adobe Illustrator 23.0.4, SVG Export Plug-In . SVG Version: 6.00 Build 0)  -->
<svg version="1.1" id="Layer_1" xmlns="http://www.w3.org/2000/svg" xmlns:xlink="http://www.w3.org/1999/xlink" x="0px" y="0px"
	 viewBox="0 0 200 200" style="enable-background:new 0 0 200 200;" xml:space="preserve">
<style type="text/css">
	.st0{fill:#FFE171;}
	.st1{fill:#FFD300;}
	.st2{fill:#B26D3C;}
	.st3{fill:#F95858;}
	.st4{fill:#EA1B5F;}
	.st5{fill:#7A3D06;}
</style>
<g>
	<path id="Path_4791" class="st0" d="M200,100c0,55.2-44.8,100-100,100c-26.5,0-52-10.5-70.7-29.3c-39.1-39.1-39.1-102.4,0-141.4
		s102.4-39.1,141.4,0C189.5,48,200.1,73.5,200,100z"/>
	<path id="Path_4792" class="st1" d="M200,100c0.1,26.5-10.4,51.9-29.1,70.7c-18.5,18.8-43.8,29.3-70.1,29.3V0
		c26.4-0.1,51.6,10.5,70.1,29.3C189.6,48.1,200.1,73.5,200,100z"/>
	<path id="Path_4793" class="st2" d="M136.9,106.6c0,20.4-16.5,36.9-36.9,36.9S63.1,127,63.1,106.6h11.6c0,14,11.3,25.3,25.3,25.3
		c14,0,25.3-11.3,25.3-25.3H136.9z"/>
	<path id="Path_4794" class="st3" d="M32.3,89.1c-10.4,0-18.8,8.4-18.8,18.8s8.4,18.8,18.8,18.8c10.4,0,18.8-8.4,18.8-18.8
		C51.1,97.5,42.7,89.1,32.3,89.1z"/>
	<path id="Path_4795" class="st4" d="M167.7,89.1c-10.4,0-18.8,8.4-18.8,18.8s8.4,18.8,18.8,18.8c10.4,0,18.8-8.4,18.8-18.8
		C186.4,97.5,178,89.1,167.7,89.1z"/>
	<path id="Path_4796" class="st2" d="M88.6,81.3H77c0-5.5-4.5-9.9-9.9-9.9c-5.5,0-9.9,4.5-9.9,9.9H45.5c0-11.9,9.7-21.6,21.6-21.6
		S88.6,69.3,88.6,81.3L88.6,81.3z"/>
	<g id="Group_822" transform="translate(94.585 56.56)">
		<path id="Path_4797" class="st5" d="M59.9,25H48.3c0-5.5-4.5-9.9-9.9-9.9s-9.9,4.5-9.9,9.9H16.7c0-11.9,9.7-21.6,21.6-21.6
			C50.2,3.4,59.9,13.1,59.9,25z"/>
		<path id="Path_4798" class="st5" d="M42.7,49.8c0,20.4-16.5,36.9-36.9,36.9V75.1c14,0,25.3-11.3,25.3-25.3H42.7z"/>
	</g>
</g>
</svg>
