<?xml version="1.0" encoding="utf-8"?>
<!-- Generator: Adobe Illustrator 23.0.4, SVG Export Plug-In . SVG Version: 6.00 Build 0)  -->
<svg version="1.1" id="Layer_1" xmlns="http://www.w3.org/2000/svg" xmlns:xlink="http://www.w3.org/1999/xlink" x="0px" y="0px"
	 viewBox="0 0 200 200" style="enable-background:new 0 0 200 200;" xml:space="preserve">
<style type="text/css">
	.st0{fill:#FFE171;}
	.st1{fill:#FFD300;}
	.st2{fill:#B26D3C;}
	.st3{fill:#7A3D06;}
</style>
<g>
	<path id="Path_4785" class="st0" d="M200,100c0,55.2-44.8,100-100,100c-26.5,0-52-10.5-70.7-29.3c-39.1-39.1-39.1-102.4,0-141.4
		s102.4-39.1,141.4,0C189.5,48,200.1,73.5,200,100z"/>
	<path id="Path_4786" class="st1" d="M200,100c0.1,26.5-10.3,51.9-29,70.7c-18.5,18.8-43.7,29.3-70.1,29.3V0
		c26.3-0.1,51.6,10.5,70.1,29.3C189.7,48.1,200.1,73.5,200,100z"/>
	<path id="Path_4787" class="st2" d="M60.5,60.4c-9.4,0-16.9,7.6-16.9,16.9s7.6,16.9,16.9,16.9c9.4,0,16.9-7.6,16.9-16.9
		c0,0,0,0,0,0C77.4,68,69.8,60.4,60.5,60.4z"/>
	<path id="Path_4788" class="st3" d="M139.5,60.4c-9.4,0-16.9,7.6-16.9,16.9c0,9.4,7.6,16.9,16.9,16.9c9.4,0,16.9-7.6,16.9-16.9
		C156.5,68,148.9,60.4,139.5,60.4z"/>
	<path id="Path_4789" class="st2" d="M50.7,121.6h98.7v11.6H50.7V121.6z"/>
	<path id="Path_4790" class="st3" d="M100.3,121.6h49.3v11.6h-49.3V121.6z"/>
</g>
</svg>
