<?xml version="1.0" encoding="utf-8"?>
<!-- Generator: Adobe Illustrator 23.0.4, SVG Export Plug-In . SVG Version: 6.00 Build 0)  -->
<svg version="1.1" id="Layer_1" xmlns="http://www.w3.org/2000/svg" xmlns:xlink="http://www.w3.org/1999/xlink" x="0px" y="0px"
	 viewBox="0 0 200 200" style="enable-background:new 0 0 200 200;" xml:space="preserve">
<style type="text/css">
	.st0{fill:#FFE171;}
	.st1{fill:#FFD300;}
	.st2{fill:#B26D3C;}
	.st3{fill:#7A3D06;}
</style>
<g id="_002-sad" transform="translate(0 0)">
	<path id="Path_4807" class="st0" d="M200,100c0,55.2-44.8,100-100,100c-26.5,0-52-10.5-70.7-29.3c-39.1-39.1-39.1-102.4,0-141.4
		s102.4-39.1,141.4,0C189.5,48,200.1,73.5,200,100z"/>
	<path id="Path_4808" class="st1" d="M200,100c0.1,55.2-44.6,99.9-99.8,100c0,0,0,0,0,0V0C155.4,0.1,200.1,44.8,200,100z"/>
	<path id="Path_4809" class="st2" d="M60.5,60.3c-9.4,0-17.1,7.6-17.1,17.1c0,9.4,7.6,17.1,17.1,17.1c9.4,0,17.1-7.6,17.1-17.1
		c0,0,0,0,0,0C77.6,68,69.9,60.3,60.5,60.3z"/>
	<path id="Path_4810" class="st3" d="M139.5,60.3c-9.4,0-17.1,7.6-17.1,17.1s7.6,17.1,17.1,17.1c9.4,0,17.1-7.6,17.1-17.1
		C156.5,68,148.9,60.3,139.5,60.3z"/>
	<path id="Path_4811" class="st2" d="M156.7,152.1c-11.8-31.3-46.8-47.1-78.1-35.3c-16.3,6.1-29.2,19-35.3,35.3l11,4.1
		c9.5-25.2,37.7-38,63-28.4c13.1,5,23.5,15.3,28.4,28.4L156.7,152.1z"/>
	<path id="Path_4812" class="st3" d="M156.6,152.1c-8.8-23.6-31.3-39.2-56.5-39.2v11.7c20.3,0.1,38.4,12.6,45.5,31.6L156.6,152.1z"
		/>
</g>
</svg>
