<?xml version="1.0" encoding="utf-8"?>
<!-- Generator: Adobe Illustrator 23.0.4, SVG Export Plug-In . SVG Version: 6.00 Build 0)  -->
<svg version="1.1" id="Layer_1" xmlns="http://www.w3.org/2000/svg" xmlns:xlink="http://www.w3.org/1999/xlink" x="0px" y="0px"
	 viewBox="0 0 200 200" style="enable-background:new 0 0 200 200;" xml:space="preserve">
<style type="text/css">
	.st0{fill:#FFE171;}
	.st1{fill:#FFD300;}
	.st2{fill:#4CC4FF;}
	.st3{fill:#169EFF;}
	.st4{fill:#F95858;}
	.st5{fill:#EA1B5F;}
	.st6{fill:#DCF3FF;}
	.st7{fill:#B0E2FA;}
</style>
<g>
	<path id="Path_4829" class="st0" d="M199.9,100c0,55.2-44.8,100-100,100c-26.5,0-52-10.5-70.7-29.3C-9.8,131.5-9.6,68.2,29.6,29.3
		c39-38.8,102-38.8,141,0C189.4,48,200,73.5,199.9,100z"/>
	<path id="Path_4830" class="st1" d="M199.9,100c0,55.2-44.8,100-100,100V0C155.1,0,199.9,44.8,199.9,100L199.9,100z"/>
	<path id="Path_4831" class="st2" d="M79.2,70l18.2-17.7l-0.2-0.5l-25.1-3.6L60.9,25.4h-0.5L49.1,48.1L24,51.8l-0.2,0.5L42,70
		l-4.3,25l0.4,0.3l22.5-11.8l22.5,11.8l0.4-0.3L79.2,70z"/>
	<path id="Path_4832" class="st3" d="M157.8,70l18.2-17.7l-0.2-0.5l-25.1-3.6l-11.2-22.7h-0.5l-11.2,22.7l-25.1,3.6l-0.2,0.5
		L120.6,70l-4.3,25l0.4,0.3l22.5-11.8l22.5,11.8l0.4-0.3L157.8,70z"/>
	<path id="Path_4833" class="st4" d="M139.2,112.5c0,0,20,12.2,18.2,17.9c-9.9,31.8-43.6,49.5-75.4,39.6
		c-18.8-5.9-33.6-20.6-39.5-39.4c-1.8-5.7,18.2-18.1,18.2-18.1L139.2,112.5z"/>
	<path id="Path_4834" class="st5" d="M139.2,112.5c0,0,18.2,18,18.2,18.1c-7.9,25.1-31.2,42.1-57.4,42.1v-60.2H139.2z"/>
	<path id="Path_4835" class="st6" d="M160.1,107v5.5c0,6.1-0.9,12.2-2.8,18.1H42.5c-1.8-5.8-2.8-11.9-2.8-18.1V107H160.1z"/>
	<path id="Path_4836" class="st7" d="M160.1,107v5.5c0,6.1-0.9,12.2-2.8,18.1H99.9V107H160.1z"/>
</g>
</svg>
