<?xml version="1.0" encoding="utf-8"?>
<!-- Generator: Adobe Illustrator 23.0.4, SVG Export Plug-In . SVG Version: 6.00 Build 0)  -->
<svg version="1.1" id="Layer_1" xmlns="http://www.w3.org/2000/svg" xmlns:xlink="http://www.w3.org/1999/xlink" x="0px" y="0px"
	 viewBox="0 0 200 200" style="enable-background:new 0 0 200 200;" xml:space="preserve">
<style type="text/css">
	.st0{fill:#FFE171;}
	.st1{fill:#FFD300;}
	.st2{fill:#7A3D06;}
	.st3{fill:#B26D3C;}
	.st4{fill:#F95858;}
	.st5{fill:#EA1B5F;}
	.st6{fill:#DCF3FF;}
	.st7{fill:#B0E2FA;}
</style>
<g id="_016-sad" transform="translate(9 6)">
	<g transform="matrix(1, 0, 0, 1, -9, -6)">
		<path id="Path_4837-2" class="st0" d="M199.7,100c0,55.2-44.8,100-100,100c-26.5,0-51.9-10.5-70.7-29.3
			C-9.7,131.3-9.2,68,30.1,29.3C69-9,131.5-9,170.4,29.3C189.2,48,199.8,73.5,199.7,100z"/>
	</g>
	<path id="Path_4838" class="st1" d="M190.7,94c0,55.2-44.8,100-100,100l0,0V-6C145.9-6,190.7,38.8,190.7,94z"/>
	<path id="Path_4839" class="st2" d="M136,85.6l-38.1-22l38.1-22l5.9,10.1l-20.5,11.8l20.5,11.8L136,85.6z"/>
	<path id="Path_4840" class="st3" d="M45.1,85.6l-5.9-10.1l20.5-11.8L39.2,51.8l5.9-10.1l38.1,22L45.1,85.6z"/>
	<path id="Path_4841" class="st4" d="M152.1,146.2v8.3l-7.8-2.8c-0.3-0.1-26.5-9.4-53.6-9.4c-27.1,0-53.3,9.3-53.6,9.4l-7.8,2.8
		v-8.3c0-13.8,4.7-27.3,13.3-38.1c11.3-14.2,28.7-3.2,48.1-3.2s36.9-11,48.1,3.2C147.5,118.9,152.2,132.4,152.1,146.2z"/>
	<path id="Path_4842" class="st5" d="M152.1,146.2v8.3l-7.8-2.8c-0.3-0.1-26.5-9.4-53.6-9.4v-41.5c19.5,0,36.9-6.9,48.1,7.3
		C147.5,118.9,152.2,132.4,152.1,146.2z"/>
	<path id="Path_4843" class="st6" d="M138.9,108.1H42.6c21-26.6,59.6-31.1,86.2-10.1C132.5,101,135.9,104.4,138.9,108.1z"/>
	<path id="Path_4844" class="st7" d="M138.9,108.1H90.7V84.8C109.5,84.8,127.2,93.4,138.9,108.1z"/>
</g>
</svg>
